<svg width="100" height="105" viewBox="0 0 100 105" fill="none" xmlns="http://www.w3.org/2000/svg">
<rect width="100" height="105" rx="5" fill="white"/>
<path d="M50.1462 104.219L53.9818 98.7838L61.0973 88.7063L59.5774 76.0002L50.1462 89.2122L40.8803 76.232L39.3868 88.9779L46.3103 98.7838L50.1462 104.219Z" fill="#61B960"/>
<path d="M38.2479 37.8691L45.035 40.8061L40.8803 76.232L50.1462 89.2122L59.5774 76.0002L55.3627 40.8061L61.9817 37.9405L50.0957 14.6137L38.2479 37.8691Z" fill="#299D2A"/>
<path d="M83.5269 56.8419V56.9308L99.383 34.4704L83.0905 0.70793L50.1462 5.68628L18.0646 0.636353L0.909088 34.4704L39.3868 88.9779L40.8803 76.232L9.2543 34.253L14.248 25.2541L36.8455 40.6212L38.2454 37.8691L50.0957 14.6137L61.9817 37.9405L63.3484 40.6212L85.9746 25.1332L91.0498 34.253L83.4167 44.3851H83.5389V56.8419H83.5269ZM35.9106 36.9186L16.2522 21.6653L23.4443 8.69253L46.2816 13.2513L35.9106 36.9186ZM64.2857 36.9186L53.9196 13.2686L76.8503 8.69253L83.9919 21.5592L64.2857 36.9186Z" fill="black" fill-opacity="0.7"/>
<path d="M76.481 58.5623H72.7196L59.5774 76.0002L61.0973 88.7063L82.3763 58.5623H81.8584H76.481Z" fill="black" fill-opacity="0.7"/>
<path fill-rule="evenodd" clip-rule="evenodd" d="M66.5248 46.103V56.8419H81.8584V46.103H66.5248ZM79.9141 52.5546H68.5457V54.5095H79.9141V52.5546ZM76.4019 49.0103H68.5457V50.9652H76.4019V49.0103Z" fill="#299D2A"/>
<path d="M50.1462 104.219L53.9818 98.7838L61.0973 88.7063L59.5774 76.0002L50.1462 89.2122L40.8803 76.232L39.3868 88.9779L46.3103 98.7838L50.1462 104.219Z" fill="#61B960"/>
<path d="M38.2479 37.8691L45.035 40.8061L40.8803 76.232L50.1462 89.2122L59.5774 76.0002L55.3627 40.8061L61.9817 37.9405L50.0957 14.6137L38.2479 37.8691Z" fill="#299D2A"/>
<path d="M83.5269 56.8419V56.9308L99.383 34.4704L83.0905 0.70793L50.1462 5.68628L18.0646 0.636353L0.909088 34.4704L39.3868 88.9779L40.8803 76.232L9.2543 34.253L14.248 25.2541L36.8455 40.6212L38.2454 37.8691L50.0957 14.6137L61.9817 37.9405L63.3484 40.6212L85.9746 25.1332L91.0498 34.253L83.4167 44.3851H83.5389V56.8419H83.5269ZM35.9106 36.9186L16.2522 21.6653L23.4443 8.69253L46.2816 13.2513L35.9106 36.9186ZM64.2857 36.9186L53.9196 13.2686L76.8503 8.69253L83.9919 21.5592L64.2857 36.9186Z" fill="black" fill-opacity="0.7"/>
<path d="M76.481 58.5623H72.7196L59.5774 76.0002L61.0973 88.7063L82.3763 58.5623H81.8584H76.481Z" fill="black" fill-opacity="0.7"/>
<path fill-rule="evenodd" clip-rule="evenodd" d="M66.5248 46.103V56.8419H81.8584V46.103H66.5248ZM79.9141 52.5546H68.5457V54.5095H79.9141V52.5546ZM76.4019 49.0103H68.5457V50.9652H76.4019V49.0103Z" fill="#299D2A"/>
<path d="M50.1462 104.219L53.9818 98.7838L61.0973 88.7063L59.5774 76.0002L50.1462 89.2122L40.8803 76.232L39.3868 88.9779L46.3103 98.7838L50.1462 104.219Z" fill="#61B960"/>
<path d="M38.2479 37.8691L45.035 40.8061L40.8803 76.232L50.1462 89.2122L59.5774 76.0002L55.3627 40.8061L61.9817 37.9405L50.0957 14.6137L38.2479 37.8691Z" fill="#299D2A"/>
<path d="M83.5269 56.8419V56.9308L99.383 34.4704L83.0905 0.70793L50.1462 5.68628L18.0646 0.636353L0.909088 34.4704L39.3868 88.9779L40.8803 76.232L9.2543 34.253L14.248 25.2541L36.8455 40.6212L38.2454 37.8691L50.0957 14.6137L61.9817 37.9405L63.3484 40.6212L85.9746 25.1332L91.0498 34.253L83.4167 44.3851H83.5389V56.8419H83.5269ZM35.9106 36.9186L16.2522 21.6653L23.4443 8.69253L46.2816 13.2513L35.9106 36.9186ZM64.2857 36.9186L53.9196 13.2686L76.8503 8.69253L83.9919 21.5592L64.2857 36.9186Z" fill="black" fill-opacity="0.7"/>
<path d="M76.481 58.5623H72.7196L59.5774 76.0002L61.0973 88.7063L82.3763 58.5623H81.8584H76.481Z" fill="black" fill-opacity="0.7"/>
<path fill-rule="evenodd" clip-rule="evenodd" d="M66.5248 46.103V56.8419H81.8584V46.103H66.5248ZM79.9141 52.5546H68.5457V54.5095H79.9141V52.5546ZM76.4019 49.0103H68.5457V50.9652H76.4019V49.0103Z" fill="#299D2A"/>
<path d="M50.1462 104.219L53.9818 98.7838L61.0973 88.7063L59.5774 76.0002L50.1462 89.2122L40.8803 76.232L39.3868 88.9779L46.3103 98.7838L50.1462 104.219Z" fill="#61B960"/>
<path d="M38.2479 37.8691L45.035 40.8061L40.8803 76.232L50.1462 89.2122L59.5774 76.0002L55.3627 40.8061L61.9817 37.9405L50.0957 14.6137L38.2479 37.8691Z" fill="#299D2A"/>
<path d="M83.5269 56.8419V56.9308L99.383 34.4704L83.0905 0.70793L50.1462 5.68628L18.0646 0.636353L0.909088 34.4704L39.3868 88.9779L40.8803 76.232L9.2543 34.253L14.248 25.2541L36.8455 40.6212L38.2454 37.8691L50.0957 14.6137L61.9817 37.9405L63.3484 40.6212L85.9746 25.1332L91.0498 34.253L83.4167 44.3851H83.5389V56.8419H83.5269ZM35.9106 36.9186L16.2522 21.6653L23.4443 8.69253L46.2816 13.2513L35.9106 36.9186ZM64.2857 36.9186L53.9196 13.2686L76.8503 8.69253L83.9919 21.5592L64.2857 36.9186Z" fill="black" fill-opacity="0.7"/>
<path d="M76.481 58.5623H72.7196L59.5774 76.0002L61.0973 88.7063L82.3763 58.5623H81.8584H76.481Z" fill="black" fill-opacity="0.7"/>
<path fill-rule="evenodd" clip-rule="evenodd" d="M66.5248 46.103V56.8419H81.8584V46.103H66.5248ZM79.9141 52.5546H68.5457V54.5095H79.9141V52.5546ZM76.4019 49.0103H68.5457V50.9652H76.4019V49.0103Z" fill="#299D2A"/>
<path d="M50.1462 104.219L53.9818 98.7838L61.0973 88.7063L59.5774 76.0002L50.1462 89.2122L40.8803 76.232L39.3868 88.9779L46.3103 98.7838L50.1462 104.219Z" fill="#61B960"/>
<path d="M38.2479 37.8691L45.035 40.8061L40.8803 76.232L50.1462 89.2122L59.5774 76.0002L55.3627 40.8061L61.9817 37.9405L50.0957 14.6137L38.2479 37.8691Z" fill="#299D2A"/>
<path d="M83.5269 56.8419V56.9308L99.383 34.4704L83.0905 0.70793L50.1462 5.68628L18.0646 0.636353L0.909088 34.4704L39.3868 88.9779L40.8803 76.232L9.2543 34.253L14.248 25.2541L36.8455 40.6212L38.2454 37.8691L50.0957 14.6137L61.9817 37.9405L63.3484 40.6212L85.9746 25.1332L91.0498 34.253L83.4167 44.3851H83.5389V56.8419H83.5269ZM35.9106 36.9186L16.2522 21.6653L23.4443 8.69253L46.2816 13.2513L35.9106 36.9186ZM64.2857 36.9186L53.9196 13.2686L76.8503 8.69253L83.9919 21.5592L64.2857 36.9186Z" fill="black" fill-opacity="0.7"/>
<path d="M76.481 58.5623H72.7196L59.5774 76.0002L61.0973 88.7063L82.3763 58.5623H81.8584H76.481Z" fill="black" fill-opacity="0.7"/>
<path fill-rule="evenodd" clip-rule="evenodd" d="M66.5248 46.103V56.8419H81.8584V46.103H66.5248ZM79.9141 52.5546H68.5457V54.5095H79.9141V52.5546ZM76.4019 49.0103H68.5457V50.9652H76.4019V49.0103Z" fill="#299D2A"/>
<path d="M50.1462 104.219L53.9818 98.7838L61.0973 88.7063L59.5774 76.0002L50.1462 89.2122L40.8803 76.232L39.3868 88.9779L46.3103 98.7838L50.1462 104.219Z" fill="#61B960"/>
<path d="M38.2479 37.8691L45.035 40.8061L40.8803 76.232L50.1462 89.2122L59.5774 76.0002L55.3627 40.8061L61.9817 37.9405L50.0957 14.6137L38.2479 37.8691Z" fill="#299D2A"/>
<path d="M83.5269 56.8419V56.9308L99.383 34.4704L83.0905 0.70793L50.1462 5.68628L18.0646 0.636353L0.909088 34.4704L39.3868 88.9779L40.8803 76.232L9.2543 34.253L14.248 25.2541L36.8455 40.6212L38.2454 37.8691L50.0957 14.6137L61.9817 37.9405L63.3484 40.6212L85.9746 25.1332L91.0498 34.253L83.4167 44.3851H83.5389V56.8419H83.5269ZM35.9106 36.9186L16.2522 21.6653L23.4443 8.69253L46.2816 13.2513L35.9106 36.9186ZM64.2857 36.9186L53.9196 13.2686L76.8503 8.69253L83.9919 21.5592L64.2857 36.9186Z" fill="black" fill-opacity="0.7"/>
<path d="M76.481 58.5623H72.7196L59.5774 76.0002L61.0973 88.7063L82.3763 58.5623H81.8584H76.481Z" fill="black" fill-opacity="0.7"/>
<path fill-rule="evenodd" clip-rule="evenodd" d="M66.5248 46.103V56.8419H81.8584V46.103H66.5248ZM79.9141 52.5546H68.5457V54.5095H79.9141V52.5546ZM76.4019 49.0103H68.5457V50.9652H76.4019V49.0103Z" fill="#299D2A"/>
<path d="M50.1462 104.219L53.9818 98.7838L61.0973 88.7063L59.5774 76.0002L50.1462 89.2122L40.8803 76.232L39.3868 88.9779L46.3103 98.7838L50.1462 104.219Z" fill="#61B960"/>
<path d="M38.2479 37.8691L45.035 40.8061L40.8803 76.232L50.1462 89.2122L59.5774 76.0002L55.3627 40.8061L61.9817 37.9405L50.0957 14.6137L38.2479 37.8691Z" fill="#299D2A"/>
<path d="M83.5269 56.8419V56.9308L99.383 34.4704L83.0905 0.70793L50.1462 5.68628L18.0646 0.636353L0.909088 34.4704L39.3868 88.9779L40.8803 76.232L9.2543 34.253L14.248 25.2541L36.8455 40.6212L38.2454 37.8691L50.0957 14.6137L61.9817 37.9405L63.3484 40.6212L85.9746 25.1332L91.0498 34.253L83.4167 44.3851H83.5389V56.8419H83.5269ZM35.9106 36.9186L16.2522 21.6653L23.4443 8.69253L46.2816 13.2513L35.9106 36.9186ZM64.2857 36.9186L53.9196 13.2686L76.8503 8.69253L83.9919 21.5592L64.2857 36.9186Z" fill="black" fill-opacity="0.7"/>
<path d="M76.481 58.5623H72.7196L59.5774 76.0002L61.0973 88.7063L82.3763 58.5623H81.8584H76.481Z" fill="black" fill-opacity="0.7"/>
<path fill-rule="evenodd" clip-rule="evenodd" d="M66.5248 46.103V56.8419H81.8584V46.103H66.5248ZM79.9141 52.5546H68.5457V54.5095H79.9141V52.5546ZM76.4019 49.0103H68.5457V50.9652H76.4019V49.0103Z" fill="#299D2A"/>
<path d="M50.1462 104.219L53.9818 98.7838L61.0973 88.7063L59.5774 76.0002L50.1462 89.2122L40.8803 76.232L39.3868 88.9779L46.3103 98.7838L50.1462 104.219Z" fill="#61B960"/>
<path d="M38.2479 37.8691L45.035 40.8061L40.8803 76.232L50.1462 89.2122L59.5774 76.0002L55.3627 40.8061L61.9817 37.9405L50.0957 14.6137L38.2479 37.8691Z" fill="#299D2A"/>
<path d="M83.5269 56.8419V56.9308L99.383 34.4704L83.0905 0.70793L50.1462 5.68628L18.0646 0.636353L0.909088 34.4704L39.3868 88.9779L40.8803 76.232L9.2543 34.253L14.248 25.2541L36.8455 40.6212L38.2454 37.8691L50.0957 14.6137L61.9817 37.9405L63.3484 40.6212L85.9746 25.1332L91.0498 34.253L83.4167 44.3851H83.5389V56.8419H83.5269ZM35.9106 36.9186L16.2522 21.6653L23.4443 8.69253L46.2816 13.2513L35.9106 36.9186ZM64.2857 36.9186L53.9196 13.2686L76.8503 8.69253L83.9919 21.5592L64.2857 36.9186Z" fill="black" fill-opacity="0.7"/>
<path d="M76.481 58.5623H72.7196L59.5774 76.0002L61.0973 88.7063L82.3763 58.5623H81.8584H76.481Z" fill="black" fill-opacity="0.7"/>
<path fill-rule="evenodd" clip-rule="evenodd" d="M66.5248 46.103V56.8419H81.8584V46.103H66.5248ZM79.9141 52.5546H68.5457V54.5095H79.9141V52.5546ZM76.4019 49.0103H68.5457V50.9652H76.4019V49.0103Z" fill="#299D2A"/>
<path d="M50.1462 104.219L53.9818 98.7838L61.0973 88.7063L59.5774 76.0002L50.1462 89.2122L40.8803 76.232L39.3868 88.9779L46.3103 98.7838L50.1462 104.219Z" fill="#61B960"/>
<path d="M38.2479 37.8691L45.035 40.8061L40.8803 76.232L50.1462 89.2122L59.5774 76.0002L55.3627 40.8061L61.9817 37.9405L50.0957 14.6137L38.2479 37.8691Z" fill="#299D2A"/>
<path d="M83.5269 56.8419V56.9308L99.383 34.4704L83.0905 0.70793L50.1462 5.68628L18.0646 0.636353L0.909088 34.4704L39.3868 88.9779L40.8803 76.232L9.2543 34.253L14.248 25.2541L36.8455 40.6212L38.2454 37.8691L50.0957 14.6137L61.9817 37.9405L63.3484 40.6212L85.9746 25.1332L91.0498 34.253L83.4167 44.3851H83.5389V56.8419H83.5269ZM35.9106 36.9186L16.2522 21.6653L23.4443 8.69253L46.2816 13.2513L35.9106 36.9186ZM64.2857 36.9186L53.9196 13.2686L76.8503 8.69253L83.9919 21.5592L64.2857 36.9186Z" fill="black" fill-opacity="0.7"/>
<path d="M76.481 58.5623H72.7196L59.5774 76.0002L61.0973 88.7063L82.3763 58.5623H81.8584H76.481Z" fill="black" fill-opacity="0.7"/>
<path fill-rule="evenodd" clip-rule="evenodd" d="M66.5248 46.103V56.8419H81.8584V46.103H66.5248ZM79.9141 52.5546H68.5457V54.5095H79.9141V52.5546ZM76.4019 49.0103H68.5457V50.9652H76.4019V49.0103Z" fill="#299D2A"/>
<path d="M50.1462 104.219L53.9818 98.7838L61.0973 88.7063L59.5774 76.0002L50.1462 89.2122L40.8803 76.232L39.3868 88.9779L46.3103 98.7838L50.1462 104.219Z" fill="#61B960"/>
<path d="M38.2479 37.8691L45.035 40.8061L40.8803 76.232L50.1462 89.2122L59.5774 76.0002L55.3627 40.8061L61.9817 37.9405L50.0957 14.6137L38.2479 37.8691Z" fill="#299D2A"/>
<path d="M83.5269 56.8419V56.9308L99.383 34.4704L83.0905 0.70793L50.1462 5.68628L18.0646 0.636353L0.909088 34.4704L39.3868 88.9779L40.8803 76.232L9.2543 34.253L14.248 25.2541L36.8455 40.6212L38.2454 37.8691L50.0957 14.6137L61.9817 37.9405L63.3484 40.6212L85.9746 25.1332L91.0498 34.253L83.4167 44.3851H83.5389V56.8419H83.5269ZM35.9106 36.9186L16.2522 21.6653L23.4443 8.69253L46.2816 13.2513L35.9106 36.9186ZM64.2857 36.9186L53.9196 13.2686L76.8503 8.69253L83.9919 21.5592L64.2857 36.9186Z" fill="black" fill-opacity="0.7"/>
<path d="M76.481 58.5623H72.7196L59.5774 76.0002L61.0973 88.7063L82.3763 58.5623H81.8584H76.481Z" fill="black" fill-opacity="0.7"/>
<path fill-rule="evenodd" clip-rule="evenodd" d="M66.5248 46.103V56.8419H81.8584V46.103H66.5248ZM79.9141 52.5546H68.5457V54.5095H79.9141V52.5546ZM76.4019 49.0103H68.5457V50.9652H76.4019V49.0103Z" fill="#299D2A"/>
<path d="M50.1462 104.219L53.9818 98.7838L61.0973 88.7063L59.5774 76.0002L50.1462 89.2122L40.8803 76.232L39.3868 88.9779L46.3103 98.7838L50.1462 104.219Z" fill="#61B960"/>
<path d="M38.2479 37.8691L45.035 40.8061L40.8803 76.232L50.1462 89.2122L59.5774 76.0002L55.3627 40.8061L61.9817 37.9405L50.0957 14.6137L38.2479 37.8691Z" fill="#299D2A"/>
<path d="M83.5269 56.8419V56.9308L99.383 34.4704L83.0905 0.70793L50.1462 5.68628L18.0646 0.636353L0.909088 34.4704L39.3868 88.9779L40.8803 76.232L9.2543 34.253L14.248 25.2541L36.8455 40.6212L38.2454 37.8691L50.0957 14.6137L61.9817 37.9405L63.3484 40.6212L85.9746 25.1332L91.0498 34.253L83.4167 44.3851H83.5389V56.8419H83.5269ZM35.9106 36.9186L16.2522 21.6653L23.4443 8.69253L46.2816 13.2513L35.9106 36.9186ZM64.2857 36.9186L53.9196 13.2686L76.8503 8.69253L83.9919 21.5592L64.2857 36.9186Z" fill="black" fill-opacity="0.7"/>
<path d="M76.481 58.5623H72.7196L59.5774 76.0002L61.0973 88.7063L82.3763 58.5623H81.8584H76.481Z" fill="black" fill-opacity="0.7"/>
<path fill-rule="evenodd" clip-rule="evenodd" d="M66.5248 46.103V56.8419H81.8584V46.103H66.5248ZM79.9141 52.5546H68.5457V54.5095H79.9141V52.5546ZM76.4019 49.0103H68.5457V50.9652H76.4019V49.0103Z" fill="#299D2A"/>
<path d="M50.1462 104.219L53.9818 98.7838L61.0973 88.7063L59.5774 76.0002L50.1462 89.2122L40.8803 76.232L39.3868 88.9779L46.3103 98.7838L50.1462 104.219Z" fill="#61B960"/>
<path d="M38.2479 37.8691L45.035 40.8061L40.8803 76.232L50.1462 89.2122L59.5774 76.0002L55.3627 40.8061L61.9817 37.9405L50.0957 14.6137L38.2479 37.8691Z" fill="#299D2A"/>
<path d="M83.5269 56.8419V56.9308L99.383 34.4704L83.0905 0.70793L50.1462 5.68628L18.0646 0.636353L0.909088 34.4704L39.3868 88.9779L40.8803 76.232L9.2543 34.253L14.248 25.2541L36.8455 40.6212L38.2454 37.8691L50.0957 14.6137L61.9817 37.9405L63.3484 40.6212L85.9746 25.1332L91.0498 34.253L83.4167 44.3851H83.5389V56.8419H83.5269ZM35.9106 36.9186L16.2522 21.6653L23.4443 8.69253L46.2816 13.2513L35.9106 36.9186ZM64.2857 36.9186L53.9196 13.2686L76.8503 8.69253L83.9919 21.5592L64.2857 36.9186Z" fill="black" fill-opacity="0.7"/>
<path d="M76.481 58.5623H72.7196L59.5774 76.0002L61.0973 88.7063L82.3763 58.5623H81.8584H76.481Z" fill="black" fill-opacity="0.7"/>
<path fill-rule="evenodd" clip-rule="evenodd" d="M66.5248 46.103V56.8419H81.8584V46.103H66.5248ZM79.9141 52.5546H68.5457V54.5095H79.9141V52.5546ZM76.4019 49.0103H68.5457V50.9652H76.4019V49.0103Z" fill="#299D2A"/>
<path d="M50.1462 104.219L53.9818 98.7838L61.0973 88.7063L59.5774 76.0002L50.1462 89.2122L40.8803 76.232L39.3868 88.9779L46.3103 98.7838L50.1462 104.219Z" fill="#61B960"/>
<path d="M38.2479 37.8691L45.035 40.8061L40.8803 76.232L50.1462 89.2122L59.5774 76.0002L55.3627 40.8061L61.9817 37.9405L50.0957 14.6137L38.2479 37.8691Z" fill="#299D2A"/>
<path d="M83.5269 56.8419V56.9308L99.383 34.4704L83.0905 0.70793L50.1462 5.68628L18.0646 0.636353L0.909088 34.4704L39.3868 88.9779L40.8803 76.232L9.2543 34.253L14.248 25.2541L36.8455 40.6212L38.2454 37.8691L50.0957 14.6137L61.9817 37.9405L63.3484 40.6212L85.9746 25.1332L91.0498 34.253L83.4167 44.3851H83.5389V56.8419H83.5269ZM35.9106 36.9186L16.2522 21.6653L23.4443 8.69253L46.2816 13.2513L35.9106 36.9186ZM64.2857 36.9186L53.9196 13.2686L76.8503 8.69253L83.9919 21.5592L64.2857 36.9186Z" fill="black" fill-opacity="0.7"/>
<path d="M76.481 58.5623H72.7196L59.5774 76.0002L61.0973 88.7063L82.3763 58.5623H81.8584H76.481Z" fill="black" fill-opacity="0.7"/>
<path fill-rule="evenodd" clip-rule="evenodd" d="M66.5248 46.103V56.8419H81.8584V46.103H66.5248ZM79.9141 52.5546H68.5457V54.5095H79.9141V52.5546ZM76.4019 49.0103H68.5457V50.9652H76.4019V49.0103Z" fill="#299D2A"/>
<path d="M50.1462 104.219L53.9818 98.7838L61.0973 88.7063L59.5774 76.0002L50.1462 89.2122L40.8803 76.232L39.3868 88.9779L46.3103 98.7838L50.1462 104.219Z" fill="#61B960"/>
<path d="M38.2479 37.8691L45.035 40.8061L40.8803 76.232L50.1462 89.2122L59.5774 76.0002L55.3627 40.8061L61.9817 37.9405L50.0957 14.6137L38.2479 37.8691Z" fill="#299D2A"/>
<path d="M83.5269 56.8419V56.9308L99.383 34.4704L83.0905 0.70793L50.1462 5.68628L18.0646 0.636353L0.909088 34.4704L39.3868 88.9779L40.8803 76.232L9.2543 34.253L14.248 25.2541L36.8455 40.6212L38.2454 37.8691L50.0957 14.6137L61.9817 37.9405L63.3484 40.6212L85.9746 25.1332L91.0498 34.253L83.4167 44.3851H83.5389V56.8419H83.5269ZM35.9106 36.9186L16.2522 21.6653L23.4443 8.69253L46.2816 13.2513L35.9106 36.9186ZM64.2857 36.9186L53.9196 13.2686L76.8503 8.69253L83.9919 21.5592L64.2857 36.9186Z" fill="black" fill-opacity="0.7"/>
<path d="M76.481 58.5623H72.7196L59.5774 76.0002L61.0973 88.7063L82.3763 58.5623H81.8584H76.481Z" fill="black" fill-opacity="0.7"/>
<path fill-rule="evenodd" clip-rule="evenodd" d="M66.5248 46.103V56.8419H81.8584V46.103H66.5248ZM79.9141 52.5546H68.5457V54.5095H79.9141V52.5546ZM76.4019 49.0103H68.5457V50.9652H76.4019V49.0103Z" fill="#299D2A"/>
<path d="M50.1462 104.219L53.9818 98.7838L61.0973 88.7063L59.5774 76.0002L50.1462 89.2122L40.8803 76.232L39.3868 88.9779L46.3103 98.7838L50.1462 104.219Z" fill="#61B960"/>
<path d="M38.2479 37.8691L45.035 40.8061L40.8803 76.232L50.1462 89.2122L59.5774 76.0002L55.3627 40.8061L61.9817 37.9405L50.0957 14.6137L38.2479 37.8691Z" fill="#299D2A"/>
<path d="M83.5269 56.8419V56.9308L99.383 34.4704L83.0905 0.70793L50.1462 5.68628L18.0646 0.636353L0.909088 34.4704L39.3868 88.9779L40.8803 76.232L9.2543 34.253L14.248 25.2541L36.8455 40.6212L38.2454 37.8691L50.0957 14.6137L61.9817 37.9405L63.3484 40.6212L85.9746 25.1332L91.0498 34.253L83.4167 44.3851H83.5389V56.8419H83.5269ZM35.9106 36.9186L16.2522 21.6653L23.4443 8.69253L46.2816 13.2513L35.9106 36.9186ZM64.2857 36.9186L53.9196 13.2686L76.8503 8.69253L83.9919 21.5592L64.2857 36.9186Z" fill="black" fill-opacity="0.7"/>
<path d="M76.481 58.5623H72.7196L59.5774 76.0002L61.0973 88.7063L82.3763 58.5623H81.8584H76.481Z" fill="black" fill-opacity="0.7"/>
<path fill-rule="evenodd" clip-rule="evenodd" d="M66.5248 46.103V56.8419H81.8584V46.103H66.5248ZM79.9141 52.5546H68.5457V54.5095H79.9141V52.5546ZM76.4019 49.0103H68.5457V50.9652H76.4019V49.0103Z" fill="#299D2A"/>
<path d="M50.1462 104.219L53.9818 98.7838L61.0973 88.7063L59.5774 76.0002L50.1462 89.2122L40.8803 76.232L39.3868 88.9779L46.3103 98.7838L50.1462 104.219Z" fill="#61B960"/>
<path d="M38.2479 37.8691L45.035 40.8061L40.8803 76.232L50.1462 89.2122L59.5774 76.0002L55.3627 40.8061L61.9817 37.9405L50.0957 14.6137L38.2479 37.8691Z" fill="#299D2A"/>
<path d="M83.5269 56.8419V56.9308L99.383 34.4704L83.0905 0.70793L50.1462 5.68628L18.0646 0.636353L0.909088 34.4704L39.3868 88.9779L40.8803 76.232L9.2543 34.253L14.248 25.2541L36.8455 40.6212L38.2454 37.8691L50.0957 14.6137L61.9817 37.9405L63.3484 40.6212L85.9746 25.1332L91.0498 34.253L83.4167 44.3851H83.5389V56.8419H83.5269ZM35.9106 36.9186L16.2522 21.6653L23.4443 8.69253L46.2816 13.2513L35.9106 36.9186ZM64.2857 36.9186L53.9196 13.2686L76.8503 8.69253L83.9919 21.5592L64.2857 36.9186Z" fill="black" fill-opacity="0.7"/>
<path d="M76.481 58.5623H72.7196L59.5774 76.0002L61.0973 88.7063L82.3763 58.5623H81.8584H76.481Z" fill="black" fill-opacity="0.7"/>
<path fill-rule="evenodd" clip-rule="evenodd" d="M66.5248 46.103V56.8419H81.8584V46.103H66.5248ZM79.9141 52.5546H68.5457V54.5095H79.9141V52.5546ZM76.4019 49.0103H68.5457V50.9652H76.4019V49.0103Z" fill="#299D2A"/>
<path d="M50.1462 104.219L53.9818 98.7838L61.0973 88.7063L59.5774 76.0002L50.1462 89.2122L40.8803 76.232L39.3868 88.9779L46.3103 98.7838L50.1462 104.219Z" fill="#61B960"/>
<path d="M38.2479 37.8691L45.035 40.8061L40.8803 76.232L50.1462 89.2122L59.5774 76.0002L55.3627 40.8061L61.9817 37.9405L50.0957 14.6137L38.2479 37.8691Z" fill="#299D2A"/>
<path d="M83.5269 56.8419V56.9308L99.383 34.4704L83.0905 0.70793L50.1462 5.68628L18.0646 0.636353L0.909088 34.4704L39.3868 88.9779L40.8803 76.232L9.2543 34.253L14.248 25.2541L36.8455 40.6212L38.2454 37.8691L50.0957 14.6137L61.9817 37.9405L63.3484 40.6212L85.9746 25.1332L91.0498 34.253L83.4167 44.3851H83.5389V56.8419H83.5269ZM35.9106 36.9186L16.2522 21.6653L23.4443 8.69253L46.2816 13.2513L35.9106 36.9186ZM64.2857 36.9186L53.9196 13.2686L76.8503 8.69253L83.9919 21.5592L64.2857 36.9186Z" fill="black" fill-opacity="0.7"/>
<path d="M76.481 58.5623H72.7196L59.5774 76.0002L61.0973 88.7063L82.3763 58.5623H81.8584H76.481Z" fill="black" fill-opacity="0.7"/>
<path fill-rule="evenodd" clip-rule="evenodd" d="M66.5248 46.103V56.8419H81.8584V46.103H66.5248ZM79.9141 52.5546H68.5457V54.5095H79.9141V52.5546ZM76.4019 49.0103H68.5457V50.9652H76.4019V49.0103Z" fill="#299D2A"/>
<path d="M50.1462 104.219L53.9818 98.7838L61.0973 88.7063L59.5774 76.0002L50.1462 89.2122L40.8803 76.232L39.3868 88.9779L46.3103 98.7838L50.1462 104.219Z" fill="#61B960"/>
<path d="M38.2479 37.8691L45.035 40.8061L40.8803 76.232L50.1462 89.2122L59.5774 76.0002L55.3627 40.8061L61.9817 37.9405L50.0957 14.6137L38.2479 37.8691Z" fill="#299D2A"/>
<path d="M83.5269 56.8419V56.9308L99.383 34.4704L83.0905 0.70793L50.1462 5.68628L18.0646 0.636353L0.909088 34.4704L39.3868 88.9779L40.8803 76.232L9.2543 34.253L14.248 25.2541L36.8455 40.6212L38.2454 37.8691L50.0957 14.6137L61.9817 37.9405L63.3484 40.6212L85.9746 25.1332L91.0498 34.253L83.4167 44.3851H83.5389V56.8419H83.5269ZM35.9106 36.9186L16.2522 21.6653L23.4443 8.69253L46.2816 13.2513L35.9106 36.9186ZM64.2857 36.9186L53.9196 13.2686L76.8503 8.69253L83.9919 21.5592L64.2857 36.9186Z" fill="black" fill-opacity="0.7"/>
<path d="M76.481 58.5623H72.7196L59.5774 76.0002L61.0973 88.7063L82.3763 58.5623H81.8584H76.481Z" fill="black" fill-opacity="0.7"/>
<path fill-rule="evenodd" clip-rule="evenodd" d="M66.5248 46.103V56.8419H81.8584V46.103H66.5248ZM79.9141 52.5546H68.5457V54.5095H79.9141V52.5546ZM76.4019 49.0103H68.5457V50.9652H76.4019V49.0103Z" fill="#299D2A"/>
<path d="M50.1462 104.219L53.9818 98.7838L61.0973 88.7063L59.5774 76.0002L50.1462 89.2122L40.8803 76.232L39.3868 88.9779L46.3103 98.7838L50.1462 104.219Z" fill="#61B960"/>
<path d="M38.2479 37.8691L45.035 40.8061L40.8803 76.232L50.1462 89.2122L59.5774 76.0002L55.3627 40.8061L61.9817 37.9405L50.0957 14.6137L38.2479 37.8691Z" fill="#299D2A"/>
<path d="M83.5269 56.8419V56.9308L99.383 34.4704L83.0905 0.70793L50.1462 5.68628L18.0646 0.636353L0.909088 34.4704L39.3868 88.9779L40.8803 76.232L9.2543 34.253L14.248 25.2541L36.8455 40.6212L38.2454 37.8691L50.0957 14.6137L61.9817 37.9405L63.3484 40.6212L85.9746 25.1332L91.0498 34.253L83.4167 44.3851H83.5389V56.8419H83.5269ZM35.9106 36.9186L16.2522 21.6653L23.4443 8.69253L46.2816 13.2513L35.9106 36.9186ZM64.2857 36.9186L53.9196 13.2686L76.8503 8.69253L83.9919 21.5592L64.2857 36.9186Z" fill="black" fill-opacity="0.7"/>
<path d="M76.481 58.5623H72.7196L59.5774 76.0002L61.0973 88.7063L82.3763 58.5623H81.8584H76.481Z" fill="black" fill-opacity="0.7"/>
<path fill-rule="evenodd" clip-rule="evenodd" d="M66.5248 46.103V56.8419H81.8584V46.103H66.5248ZM79.9141 52.5546H68.5457V54.5095H79.9141V52.5546ZM76.4019 49.0103H68.5457V50.9652H76.4019V49.0103Z" fill="#299D2A"/>
<path d="M50.1462 104.219L53.9818 98.7838L61.0973 88.7063L59.5774 76.0002L50.1462 89.2122L40.8803 76.232L39.3868 88.9779L46.3103 98.7838L50.1462 104.219Z" fill="#61B960"/>
<path d="M38.2479 37.8691L45.035 40.8061L40.8803 76.232L50.1462 89.2122L59.5774 76.0002L55.3627 40.8061L61.9817 37.9405L50.0957 14.6137L38.2479 37.8691Z" fill="#299D2A"/>
<path d="M83.5269 56.8419V56.9308L99.383 34.4704L83.0905 0.70793L50.1462 5.68628L18.0646 0.636353L0.909088 34.4704L39.3868 88.9779L40.8803 76.232L9.2543 34.253L14.248 25.2541L36.8455 40.6212L38.2454 37.8691L50.0957 14.6137L61.9817 37.9405L63.3484 40.6212L85.9746 25.1332L91.0498 34.253L83.4167 44.3851H83.5389V56.8419H83.5269ZM35.9106 36.9186L16.2522 21.6653L23.4443 8.69253L46.2816 13.2513L35.9106 36.9186ZM64.2857 36.9186L53.9196 13.2686L76.8503 8.69253L83.9919 21.5592L64.2857 36.9186Z" fill="black" fill-opacity="0.7"/>
<path d="M76.481 58.5623H72.7196L59.5774 76.0002L61.0973 88.7063L82.3763 58.5623H81.8584H76.481Z" fill="black" fill-opacity="0.7"/>
<path fill-rule="evenodd" clip-rule="evenodd" d="M66.5248 46.103V56.8419H81.8584V46.103H66.5248ZM79.9141 52.5546H68.5457V54.5095H79.9141V52.5546ZM76.4019 49.0103H68.5457V50.9652H76.4019V49.0103Z" fill="#299D2A"/>
<path d="M50.1462 104.219L53.9818 98.7838L61.0973 88.7063L59.5774 76.0002L50.1462 89.2122L40.8803 76.232L39.3868 88.9779L46.3103 98.7838L50.1462 104.219Z" fill="#61B960"/>
<path d="M38.2479 37.8691L45.035 40.8061L40.8803 76.232L50.1462 89.2122L59.5774 76.0002L55.3627 40.8061L61.9817 37.9405L50.0957 14.6137L38.2479 37.8691Z" fill="#299D2A"/>
<path d="M83.5269 56.8419V56.9308L99.383 34.4704L83.0905 0.70793L50.1462 5.68628L18.0646 0.636353L0.909088 34.4704L39.3868 88.9779L40.8803 76.232L9.2543 34.253L14.248 25.2541L36.8455 40.6212L38.2454 37.8691L50.0957 14.6137L61.9817 37.9405L63.3484 40.6212L85.9746 25.1332L91.0498 34.253L83.4167 44.3851H83.5389V56.8419H83.5269ZM35.9106 36.9186L16.2522 21.6653L23.4443 8.69253L46.2816 13.2513L35.9106 36.9186ZM64.2857 36.9186L53.9196 13.2686L76.8503 8.69253L83.9919 21.5592L64.2857 36.9186Z" fill="black" fill-opacity="0.7"/>
<path d="M76.481 58.5623H72.7196L59.5774 76.0002L61.0973 88.7063L82.3763 58.5623H81.8584H76.481Z" fill="black" fill-opacity="0.7"/>
<path fill-rule="evenodd" clip-rule="evenodd" d="M66.5248 46.103V56.8419H81.8584V46.103H66.5248ZM79.9141 52.5546H68.5457V54.5095H79.9141V52.5546ZM76.4019 49.0103H68.5457V50.9652H76.4019V49.0103Z" fill="#299D2A"/>
<path d="M50.1462 104.219L53.9818 98.7838L61.0973 88.7063L59.5774 76.0002L50.1462 89.2122L40.8803 76.232L39.3868 88.9779L46.3103 98.7838L50.1462 104.219Z" fill="#61B960"/>
<path d="M38.2479 37.8691L45.035 40.8061L40.8803 76.232L50.1462 89.2122L59.5774 76.0002L55.3627 40.8061L61.9817 37.9405L50.0957 14.6137L38.2479 37.8691Z" fill="#299D2A"/>
<path d="M83.5269 56.8419V56.9308L99.383 34.4704L83.0905 0.70793L50.1462 5.68628L18.0646 0.636353L0.909088 34.4704L39.3868 88.9779L40.8803 76.232L9.2543 34.253L14.248 25.2541L36.8455 40.6212L38.2454 37.8691L50.0957 14.6137L61.9817 37.9405L63.3484 40.6212L85.9746 25.1332L91.0498 34.253L83.4167 44.3851H83.5389V56.8419H83.5269ZM35.9106 36.9186L16.2522 21.6653L23.4443 8.69253L46.2816 13.2513L35.9106 36.9186ZM64.2857 36.9186L53.9196 13.2686L76.8503 8.69253L83.9919 21.5592L64.2857 36.9186Z" fill="black" fill-opacity="0.7"/>
<path d="M76.481 58.5623H72.7196L59.5774 76.0002L61.0973 88.7063L82.3763 58.5623H81.8584H76.481Z" fill="black" fill-opacity="0.7"/>
<path fill-rule="evenodd" clip-rule="evenodd" d="M66.5248 46.103V56.8419H81.8584V46.103H66.5248ZM79.9141 52.5546H68.5457V54.5095H79.9141V52.5546ZM76.4019 49.0103H68.5457V50.9652H76.4019V49.0103Z" fill="#299D2A"/>
<path d="M50.1462 104.219L53.9818 98.7838L61.0973 88.7063L59.5774 76.0002L50.1462 89.2122L40.8803 76.232L39.3868 88.9779L46.3103 98.7838L50.1462 104.219Z" fill="#61B960"/>
<path d="M38.2479 37.8691L45.035 40.8061L40.8803 76.232L50.1462 89.2122L59.5774 76.0002L55.3627 40.8061L61.9817 37.9405L50.0957 14.6137L38.2479 37.8691Z" fill="#299D2A"/>
<path d="M83.5269 56.8419V56.9308L99.383 34.4704L83.0905 0.70793L50.1462 5.68628L18.0646 0.636353L0.909088 34.4704L39.3868 88.9779L40.8803 76.232L9.2543 34.253L14.248 25.2541L36.8455 40.6212L38.2454 37.8691L50.0957 14.6137L61.9817 37.9405L63.3484 40.6212L85.9746 25.1332L91.0498 34.253L83.4167 44.3851H83.5389V56.8419H83.5269ZM35.9106 36.9186L16.2522 21.6653L23.4443 8.69253L46.2816 13.2513L35.9106 36.9186ZM64.2857 36.9186L53.9196 13.2686L76.8503 8.69253L83.9919 21.5592L64.2857 36.9186Z" fill="black" fill-opacity="0.7"/>
<path d="M76.481 58.5623H72.7196L59.5774 76.0002L61.0973 88.7063L82.3763 58.5623H81.8584H76.481Z" fill="black" fill-opacity="0.7"/>
<path fill-rule="evenodd" clip-rule="evenodd" d="M66.5248 46.103V56.8419H81.8584V46.103H66.5248ZM79.9141 52.5546H68.5457V54.5095H79.9141V52.5546ZM76.4019 49.0103H68.5457V50.9652H76.4019V49.0103Z" fill="#299D2A"/>
<path d="M50.1462 104.219L53.9818 98.7838L61.0973 88.7063L59.5774 76.0002L50.1462 89.2122L40.8803 76.232L39.3868 88.9779L46.3103 98.7838L50.1462 104.219Z" fill="#61B960"/>
<path d="M38.2479 37.8691L45.035 40.8061L40.8803 76.232L50.1462 89.2122L59.5774 76.0002L55.3627 40.8061L61.9817 37.9405L50.0957 14.6137L38.2479 37.8691Z" fill="#299D2A"/>
<path d="M83.5269 56.8419V56.9308L99.383 34.4704L83.0905 0.70793L50.1462 5.68628L18.0646 0.636353L0.909088 34.4704L39.3868 88.9779L40.8803 76.232L9.2543 34.253L14.248 25.2541L36.8455 40.6212L38.2454 37.8691L50.0957 14.6137L61.9817 37.9405L63.3484 40.6212L85.9746 25.1332L91.0498 34.253L83.4167 44.3851H83.5389V56.8419H83.5269ZM35.9106 36.9186L16.2522 21.6653L23.4443 8.69253L46.2816 13.2513L35.9106 36.9186ZM64.2857 36.9186L53.9196 13.2686L76.8503 8.69253L83.9919 21.5592L64.2857 36.9186Z" fill="black" fill-opacity="0.7"/>
<path d="M76.481 58.5623H72.7196L59.5774 76.0002L61.0973 88.7063L82.3763 58.5623H81.8584H76.481Z" fill="black" fill-opacity="0.7"/>
<path fill-rule="evenodd" clip-rule="evenodd" d="M66.5248 46.103V56.8419H81.8584V46.103H66.5248ZM79.9141 52.5546H68.5457V54.5095H79.9141V52.5546ZM76.4019 49.0103H68.5457V50.9652H76.4019V49.0103Z" fill="#299D2A"/>
<path d="M50.1462 104.219L53.9818 98.7838L61.0973 88.7063L59.5774 76.0002L50.1462 89.2122L40.8803 76.232L39.3868 88.9779L46.3103 98.7838L50.1462 104.219Z" fill="#61B960"/>
<path d="M38.2479 37.8691L45.035 40.8061L40.8803 76.232L50.1462 89.2122L59.5774 76.0002L55.3627 40.8061L61.9817 37.9405L50.0957 14.6137L38.2479 37.8691Z" fill="#299D2A"/>
<path d="M83.5269 56.8419V56.9308L99.383 34.4704L83.0905 0.70793L50.1462 5.68628L18.0646 0.636353L0.909088 34.4704L39.3868 88.9779L40.8803 76.232L9.2543 34.253L14.248 25.2541L36.8455 40.6212L38.2454 37.8691L50.0957 14.6137L61.9817 37.9405L63.3484 40.6212L85.9746 25.1332L91.0498 34.253L83.4167 44.3851H83.5389V56.8419H83.5269ZM35.9106 36.9186L16.2522 21.6653L23.4443 8.69253L46.2816 13.2513L35.9106 36.9186ZM64.2857 36.9186L53.9196 13.2686L76.8503 8.69253L83.9919 21.5592L64.2857 36.9186Z" fill="black" fill-opacity="0.7"/>
<path d="M76.481 58.5623H72.7196L59.5774 76.0002L61.0973 88.7063L82.3763 58.5623H81.8584H76.481Z" fill="black" fill-opacity="0.7"/>
<path fill-rule="evenodd" clip-rule="evenodd" d="M66.5248 46.103V56.8419H81.8584V46.103H66.5248ZM79.9141 52.5546H68.5457V54.5095H79.9141V52.5546ZM76.4019 49.0103H68.5457V50.9652H76.4019V49.0103Z" fill="#299D2A"/>
<path d="M50.1462 104.219L53.9818 98.7838L61.0973 88.7063L59.5774 76.0002L50.1462 89.2122L40.8803 76.232L39.3868 88.9779L46.3103 98.7838L50.1462 104.219Z" fill="#61B960"/>
<path d="M38.2479 37.8691L45.035 40.8061L40.8803 76.232L50.1462 89.2122L59.5774 76.0002L55.3627 40.8061L61.9817 37.9405L50.0957 14.6137L38.2479 37.8691Z" fill="#299D2A"/>
<path d="M83.5269 56.8419V56.9308L99.383 34.4704L83.0905 0.70793L50.1462 5.68628L18.0646 0.636353L0.909088 34.4704L39.3868 88.9779L40.8803 76.232L9.2543 34.253L14.248 25.2541L36.8455 40.6212L38.2454 37.8691L50.0957 14.6137L61.9817 37.9405L63.3484 40.6212L85.9746 25.1332L91.0498 34.253L83.4167 44.3851H83.5389V56.8419H83.5269ZM35.9106 36.9186L16.2522 21.6653L23.4443 8.69253L46.2816 13.2513L35.9106 36.9186ZM64.2857 36.9186L53.9196 13.2686L76.8503 8.69253L83.9919 21.5592L64.2857 36.9186Z" fill="black" fill-opacity="0.7"/>
<path d="M76.481 58.5623H72.7196L59.5774 76.0002L61.0973 88.7063L82.3763 58.5623H81.8584H76.481Z" fill="black" fill-opacity="0.7"/>
<path fill-rule="evenodd" clip-rule="evenodd" d="M66.5248 46.103V56.8419H81.8584V46.103H66.5248ZM79.9141 52.5546H68.5457V54.5095H79.9141V52.5546ZM76.4019 49.0103H68.5457V50.9652H76.4019V49.0103Z" fill="#299D2A"/>
<path d="M50.1462 104.219L53.9818 98.7838L61.0973 88.7063L59.5774 76.0002L50.1462 89.2122L40.8803 76.232L39.3868 88.9779L46.3103 98.7838L50.1462 104.219Z" fill="#61B960"/>
<path d="M38.2479 37.8691L45.035 40.8061L40.8803 76.232L50.1462 89.2122L59.5774 76.0002L55.3627 40.8061L61.9817 37.9405L50.0957 14.6137L38.2479 37.8691Z" fill="#299D2A"/>
<path d="M83.5269 56.8419V56.9308L99.383 34.4704L83.0905 0.70793L50.1462 5.68628L18.0646 0.636353L0.909088 34.4704L39.3868 88.9779L40.8803 76.232L9.2543 34.253L14.248 25.2541L36.8455 40.6212L38.2454 37.8691L50.0957 14.6137L61.9817 37.9405L63.3484 40.6212L85.9746 25.1332L91.0498 34.253L83.4167 44.3851H83.5389V56.8419H83.5269ZM35.9106 36.9186L16.2522 21.6653L23.4443 8.69253L46.2816 13.2513L35.9106 36.9186ZM64.2857 36.9186L53.9196 13.2686L76.8503 8.69253L83.9919 21.5592L64.2857 36.9186Z" fill="black" fill-opacity="0.7"/>
<path d="M76.481 58.5623H72.7196L59.5774 76.0002L61.0973 88.7063L82.3763 58.5623H81.8584H76.481Z" fill="black" fill-opacity="0.7"/>
<path fill-rule="evenodd" clip-rule="evenodd" d="M66.5248 46.103V56.8419H81.8584V46.103H66.5248ZM79.9141 52.5546H68.5457V54.5095H79.9141V52.5546ZM76.4019 49.0103H68.5457V50.9652H76.4019V49.0103Z" fill="#299D2A"/>
<path d="M50.1462 104.219L53.9818 98.7838L61.0973 88.7063L59.5774 76.0002L50.1462 89.2122L40.8803 76.232L39.3868 88.9779L46.3103 98.7838L50.1462 104.219Z" fill="#61B960"/>
<path d="M38.2479 37.8691L45.035 40.8061L40.8803 76.232L50.1462 89.2122L59.5774 76.0002L55.3627 40.8061L61.9817 37.9405L50.0957 14.6137L38.2479 37.8691Z" fill="#299D2A"/>
<path d="M83.5269 56.8419V56.9308L99.383 34.4704L83.0905 0.70793L50.1462 5.68628L18.0646 0.636353L0.909088 34.4704L39.3868 88.9779L40.8803 76.232L9.2543 34.253L14.248 25.2541L36.8455 40.6212L38.2454 37.8691L50.0957 14.6137L61.9817 37.9405L63.3484 40.6212L85.9746 25.1332L91.0498 34.253L83.4167 44.3851H83.5389V56.8419H83.5269ZM35.9106 36.9186L16.2522 21.6653L23.4443 8.69253L46.2816 13.2513L35.9106 36.9186ZM64.2857 36.9186L53.9196 13.2686L76.8503 8.69253L83.9919 21.5592L64.2857 36.9186Z" fill="black" fill-opacity="0.7"/>
<path d="M76.481 58.5623H72.7196L59.5774 76.0002L61.0973 88.7063L82.3763 58.5623H81.8584H76.481Z" fill="black" fill-opacity="0.7"/>
<path fill-rule="evenodd" clip-rule="evenodd" d="M66.5248 46.103V56.8419H81.8584V46.103H66.5248ZM79.9141 52.5546H68.5457V54.5095H79.9141V52.5546ZM76.4019 49.0103H68.5457V50.9652H76.4019V49.0103Z" fill="#299D2A"/>
<path d="M50.1462 104.219L53.9818 98.7838L61.0973 88.7063L59.5774 76.0002L50.1462 89.2122L40.8803 76.232L39.3868 88.9779L46.3103 98.7838L50.1462 104.219Z" fill="#61B960"/>
<path d="M38.2479 37.8691L45.035 40.8061L40.8803 76.232L50.1462 89.2122L59.5774 76.0002L55.3627 40.8061L61.9817 37.9405L50.0957 14.6137L38.2479 37.8691Z" fill="#299D2A"/>
<path d="M83.5269 56.8419V56.9308L99.383 34.4704L83.0905 0.70793L50.1462 5.68628L18.0646 0.636353L0.909088 34.4704L39.3868 88.9779L40.8803 76.232L9.2543 34.253L14.248 25.2541L36.8455 40.6212L38.2454 37.8691L50.0957 14.6137L61.9817 37.9405L63.3484 40.6212L85.9746 25.1332L91.0498 34.253L83.4167 44.3851H83.5389V56.8419H83.5269ZM35.9106 36.9186L16.2522 21.6653L23.4443 8.69253L46.2816 13.2513L35.9106 36.9186ZM64.2857 36.9186L53.9196 13.2686L76.8503 8.69253L83.9919 21.5592L64.2857 36.9186Z" fill="black" fill-opacity="0.7"/>
<path d="M76.481 58.5623H72.7196L59.5774 76.0002L61.0973 88.7063L82.3763 58.5623H81.8584H76.481Z" fill="black" fill-opacity="0.7"/>
<path fill-rule="evenodd" clip-rule="evenodd" d="M66.5248 46.103V56.8419H81.8584V46.103H66.5248ZM79.9141 52.5546H68.5457V54.5095H79.9141V52.5546ZM76.4019 49.0103H68.5457V50.9652H76.4019V49.0103Z" fill="#299D2A"/>
<path d="M50.1462 104.219L53.9818 98.7838L61.0973 88.7063L59.5774 76.0002L50.1462 89.2122L40.8803 76.232L39.3868 88.9779L46.3103 98.7838L50.1462 104.219Z" fill="#61B960"/>
<path d="M38.2479 37.8691L45.035 40.8061L40.8803 76.232L50.1462 89.2122L59.5774 76.0002L55.3627 40.8061L61.9817 37.9405L50.0957 14.6137L38.2479 37.8691Z" fill="#299D2A"/>
<path d="M83.5269 56.8419V56.9308L99.383 34.4704L83.0905 0.70793L50.1462 5.68628L18.0646 0.636353L0.909088 34.4704L39.3868 88.9779L40.8803 76.232L9.2543 34.253L14.248 25.2541L36.8455 40.6212L38.2454 37.8691L50.0957 14.6137L61.9817 37.9405L63.3484 40.6212L85.9746 25.1332L91.0498 34.253L83.4167 44.3851H83.5389V56.8419H83.5269ZM35.9106 36.9186L16.2522 21.6653L23.4443 8.69253L46.2816 13.2513L35.9106 36.9186ZM64.2857 36.9186L53.9196 13.2686L76.8503 8.69253L83.9919 21.5592L64.2857 36.9186Z" fill="black" fill-opacity="0.7"/>
<path d="M76.481 58.5623H72.7196L59.5774 76.0002L61.0973 88.7063L82.3763 58.5623H81.8584H76.481Z" fill="black" fill-opacity="0.7"/>
<path fill-rule="evenodd" clip-rule="evenodd" d="M66.5248 46.103V56.8419H81.8584V46.103H66.5248ZM79.9141 52.5546H68.5457V54.5095H79.9141V52.5546ZM76.4019 49.0103H68.5457V50.9652H76.4019V49.0103Z" fill="#299D2A"/>
<path d="M50.1462 104.219L53.9818 98.7838L61.0973 88.7063L59.5774 76.0002L50.1462 89.2122L40.8803 76.232L39.3868 88.9779L46.3103 98.7838L50.1462 104.219Z" fill="#61B960"/>
<path d="M38.2479 37.8691L45.035 40.8061L40.8803 76.232L50.1462 89.2122L59.5774 76.0002L55.3627 40.8061L61.9817 37.9405L50.0957 14.6137L38.2479 37.8691Z" fill="#299D2A"/>
<path d="M83.5269 56.8419V56.9308L99.383 34.4704L83.0905 0.70793L50.1462 5.68628L18.0646 0.636353L0.909088 34.4704L39.3868 88.9779L40.8803 76.232L9.2543 34.253L14.248 25.2541L36.8455 40.6212L38.2454 37.8691L50.0957 14.6137L61.9817 37.9405L63.3484 40.6212L85.9746 25.1332L91.0498 34.253L83.4167 44.3851H83.5389V56.8419H83.5269ZM35.9106 36.9186L16.2522 21.6653L23.4443 8.69253L46.2816 13.2513L35.9106 36.9186ZM64.2857 36.9186L53.9196 13.2686L76.8503 8.69253L83.9919 21.5592L64.2857 36.9186Z" fill="black" fill-opacity="0.7"/>
<path d="M76.481 58.5623H72.7196L59.5774 76.0002L61.0973 88.7063L82.3763 58.5623H81.8584H76.481Z" fill="black" fill-opacity="0.7"/>
<path fill-rule="evenodd" clip-rule="evenodd" d="M66.5248 46.103V56.8419H81.8584V46.103H66.5248ZM79.9141 52.5546H68.5457V54.5095H79.9141V52.5546ZM76.4019 49.0103H68.5457V50.9652H76.4019V49.0103Z" fill="#299D2A"/>
<path d="M50.1462 104.219L53.9818 98.7838L61.0973 88.7063L59.5774 76.0002L50.1462 89.2122L40.8803 76.232L39.3868 88.9779L46.3103 98.7838L50.1462 104.219Z" fill="#61B960"/>
<path d="M38.2479 37.8691L45.035 40.8061L40.8803 76.232L50.1462 89.2122L59.5774 76.0002L55.3627 40.8061L61.9817 37.9405L50.0957 14.6137L38.2479 37.8691Z" fill="#299D2A"/>
<path d="M83.5269 56.8419V56.9308L99.383 34.4704L83.0905 0.70793L50.1462 5.68628L18.0646 0.636353L0.909088 34.4704L39.3868 88.9779L40.8803 76.232L9.2543 34.253L14.248 25.2541L36.8455 40.6212L38.2454 37.8691L50.0957 14.6137L61.9817 37.9405L63.3484 40.6212L85.9746 25.1332L91.0498 34.253L83.4167 44.3851H83.5389V56.8419H83.5269ZM35.9106 36.9186L16.2522 21.6653L23.4443 8.69253L46.2816 13.2513L35.9106 36.9186ZM64.2857 36.9186L53.9196 13.2686L76.8503 8.69253L83.9919 21.5592L64.2857 36.9186Z" fill="black" fill-opacity="0.7"/>
<path d="M76.481 58.5623H72.7196L59.5774 76.0002L61.0973 88.7063L82.3763 58.5623H81.8584H76.481Z" fill="black" fill-opacity="0.7"/>
<path fill-rule="evenodd" clip-rule="evenodd" d="M66.5248 46.103V56.8419H81.8584V46.103H66.5248ZM79.9141 52.5546H68.5457V54.5095H79.9141V52.5546ZM76.4019 49.0103H68.5457V50.9652H76.4019V49.0103Z" fill="#299D2A"/>
<path d="M50.1462 104.219L53.9818 98.7838L61.0973 88.7063L59.5774 76.0002L50.1462 89.2122L40.8803 76.232L39.3868 88.9779L46.3103 98.7838L50.1462 104.219Z" fill="#61B960"/>
<path d="M38.2479 37.8691L45.035 40.8061L40.8803 76.232L50.1462 89.2122L59.5774 76.0002L55.3627 40.8061L61.9817 37.9405L50.0957 14.6137L38.2479 37.8691Z" fill="#299D2A"/>
<path d="M83.5269 56.8419V56.9308L99.383 34.4704L83.0905 0.70793L50.1462 5.68628L18.0646 0.636353L0.909088 34.4704L39.3868 88.9779L40.8803 76.232L9.2543 34.253L14.248 25.2541L36.8455 40.6212L38.2454 37.8691L50.0957 14.6137L61.9817 37.9405L63.3484 40.6212L85.9746 25.1332L91.0498 34.253L83.4167 44.3851H83.5389V56.8419H83.5269ZM35.9106 36.9186L16.2522 21.6653L23.4443 8.69253L46.2816 13.2513L35.9106 36.9186ZM64.2857 36.9186L53.9196 13.2686L76.8503 8.69253L83.9919 21.5592L64.2857 36.9186Z" fill="black" fill-opacity="0.7"/>
<path d="M76.481 58.5623H72.7196L59.5774 76.0002L61.0973 88.7063L82.3763 58.5623H81.8584H76.481Z" fill="black" fill-opacity="0.7"/>
<path fill-rule="evenodd" clip-rule="evenodd" d="M66.5248 46.103V56.8419H81.8584V46.103H66.5248ZM79.9141 52.5546H68.5457V54.5095H79.9141V52.5546ZM76.4019 49.0103H68.5457V50.9652H76.4019V49.0103Z" fill="#299D2A"/>
<path d="M50.1462 104.219L53.9818 98.7838L61.0973 88.7063L59.5774 76.0002L50.1462 89.2122L40.8803 76.232L39.3868 88.9779L46.3103 98.7838L50.1462 104.219Z" fill="#61B960"/>
<path d="M38.2479 37.8691L45.035 40.8061L40.8803 76.232L50.1462 89.2122L59.5774 76.0002L55.3627 40.8061L61.9817 37.9405L50.0957 14.6137L38.2479 37.8691Z" fill="#299D2A"/>
<path d="M83.5269 56.8419V56.9308L99.383 34.4704L83.0905 0.70793L50.1462 5.68628L18.0646 0.636353L0.909088 34.4704L39.3868 88.9779L40.8803 76.232L9.2543 34.253L14.248 25.2541L36.8455 40.6212L38.2454 37.8691L50.0957 14.6137L61.9817 37.9405L63.3484 40.6212L85.9746 25.1332L91.0498 34.253L83.4167 44.3851H83.5389V56.8419H83.5269ZM35.9106 36.9186L16.2522 21.6653L23.4443 8.69253L46.2816 13.2513L35.9106 36.9186ZM64.2857 36.9186L53.9196 13.2686L76.8503 8.69253L83.9919 21.5592L64.2857 36.9186Z" fill="black" fill-opacity="0.7"/>
<path d="M76.481 58.5623H72.7196L59.5774 76.0002L61.0973 88.7063L82.3763 58.5623H81.8584H76.481Z" fill="black" fill-opacity="0.7"/>
<path fill-rule="evenodd" clip-rule="evenodd" d="M66.5248 46.103V56.8419H81.8584V46.103H66.5248ZM79.9141 52.5546H68.5457V54.5095H79.9141V52.5546ZM76.4019 49.0103H68.5457V50.9652H76.4019V49.0103Z" fill="#299D2A"/>
<path d="M50.1462 104.219L53.9818 98.7838L61.0973 88.7063L59.5774 76.0002L50.1462 89.2122L40.8803 76.232L39.3868 88.9779L46.3103 98.7838L50.1462 104.219Z" fill="#61B960"/>
<path d="M38.2479 37.8691L45.035 40.8061L40.8803 76.232L50.1462 89.2122L59.5774 76.0002L55.3627 40.8061L61.9817 37.9405L50.0957 14.6137L38.2479 37.8691Z" fill="#299D2A"/>
<path d="M83.5269 56.8419V56.9308L99.383 34.4704L83.0905 0.70793L50.1462 5.68628L18.0646 0.636353L0.909088 34.4704L39.3868 88.9779L40.8803 76.232L9.2543 34.253L14.248 25.2541L36.8455 40.6212L38.2454 37.8691L50.0957 14.6137L61.9817 37.9405L63.3484 40.6212L85.9746 25.1332L91.0498 34.253L83.4167 44.3851H83.5389V56.8419H83.5269ZM35.9106 36.9186L16.2522 21.6653L23.4443 8.69253L46.2816 13.2513L35.9106 36.9186ZM64.2857 36.9186L53.9196 13.2686L76.8503 8.69253L83.9919 21.5592L64.2857 36.9186Z" fill="black" fill-opacity="0.7"/>
<path d="M76.481 58.5623H72.7196L59.5774 76.0002L61.0973 88.7063L82.3763 58.5623H81.8584H76.481Z" fill="black" fill-opacity="0.7"/>
<path fill-rule="evenodd" clip-rule="evenodd" d="M66.5248 46.103V56.8419H81.8584V46.103H66.5248ZM79.9141 52.5546H68.5457V54.5095H79.9141V52.5546ZM76.4019 49.0103H68.5457V50.9652H76.4019V49.0103Z" fill="#299D2A"/>
<path d="M50.1462 104.219L53.9818 98.7838L61.0973 88.7063L59.5774 76.0002L50.1462 89.2122L40.8803 76.232L39.3868 88.9779L46.3103 98.7838L50.1462 104.219Z" fill="#61B960"/>
<path d="M38.2479 37.8691L45.035 40.8061L40.8803 76.232L50.1462 89.2122L59.5774 76.0002L55.3627 40.8061L61.9817 37.9405L50.0957 14.6137L38.2479 37.8691Z" fill="#299D2A"/>
<path d="M83.5269 56.8419V56.9308L99.383 34.4704L83.0905 0.70793L50.1462 5.68628L18.0646 0.636353L0.909088 34.4704L39.3868 88.9779L40.8803 76.232L9.2543 34.253L14.248 25.2541L36.8455 40.6212L38.2454 37.8691L50.0957 14.6137L61.9817 37.9405L63.3484 40.6212L85.9746 25.1332L91.0498 34.253L83.4167 44.3851H83.5389V56.8419H83.5269ZM35.9106 36.9186L16.2522 21.6653L23.4443 8.69253L46.2816 13.2513L35.9106 36.9186ZM64.2857 36.9186L53.9196 13.2686L76.8503 8.69253L83.9919 21.5592L64.2857 36.9186Z" fill="black" fill-opacity="0.7"/>
<path d="M76.481 58.5623H72.7196L59.5774 76.0002L61.0973 88.7063L82.3763 58.5623H81.8584H76.481Z" fill="black" fill-opacity="0.7"/>
<path fill-rule="evenodd" clip-rule="evenodd" d="M66.5248 46.103V56.8419H81.8584V46.103H66.5248ZM79.9141 52.5546H68.5457V54.5095H79.9141V52.5546ZM76.4019 49.0103H68.5457V50.9652H76.4019V49.0103Z" fill="#299D2A"/>
<path d="M50.1462 104.219L53.9818 98.7838L61.0973 88.7063L59.5774 76.0002L50.1462 89.2122L40.8803 76.232L39.3868 88.9779L46.3103 98.7838L50.1462 104.219Z" fill="#61B960"/>
<path d="M38.2479 37.8691L45.035 40.8061L40.8803 76.232L50.1462 89.2122L59.5774 76.0002L55.3627 40.8061L61.9817 37.9405L50.0957 14.6137L38.2479 37.8691Z" fill="#299D2A"/>
<path d="M83.5269 56.8419V56.9308L99.383 34.4704L83.0905 0.70793L50.1462 5.68628L18.0646 0.636353L0.909088 34.4704L39.3868 88.9779L40.8803 76.232L9.2543 34.253L14.248 25.2541L36.8455 40.6212L38.2454 37.8691L50.0957 14.6137L61.9817 37.9405L63.3484 40.6212L85.9746 25.1332L91.0498 34.253L83.4167 44.3851H83.5389V56.8419H83.5269ZM35.9106 36.9186L16.2522 21.6653L23.4443 8.69253L46.2816 13.2513L35.9106 36.9186ZM64.2857 36.9186L53.9196 13.2686L76.8503 8.69253L83.9919 21.5592L64.2857 36.9186Z" fill="black" fill-opacity="0.7"/>
<path d="M76.481 58.5623H72.7196L59.5774 76.0002L61.0973 88.7063L82.3763 58.5623H81.8584H76.481Z" fill="black" fill-opacity="0.7"/>
<path fill-rule="evenodd" clip-rule="evenodd" d="M66.5248 46.103V56.8419H81.8584V46.103H66.5248ZM79.9141 52.5546H68.5457V54.5095H79.9141V52.5546ZM76.4019 49.0103H68.5457V50.9652H76.4019V49.0103Z" fill="#299D2A"/>
<path d="M50.1462 104.219L53.9818 98.7838L61.0973 88.7063L59.5774 76.0002L50.1462 89.2122L40.8803 76.232L39.3868 88.9779L46.3103 98.7838L50.1462 104.219Z" fill="#61B960"/>
<path d="M38.2479 37.8691L45.035 40.8061L40.8803 76.232L50.1462 89.2122L59.5774 76.0002L55.3627 40.8061L61.9817 37.9405L50.0957 14.6137L38.2479 37.8691Z" fill="#299D2A"/>
<path d="M83.5269 56.8419V56.9308L99.383 34.4704L83.0905 0.70793L50.1462 5.68628L18.0646 0.636353L0.909088 34.4704L39.3868 88.9779L40.8803 76.232L9.2543 34.253L14.248 25.2541L36.8455 40.6212L38.2454 37.8691L50.0957 14.6137L61.9817 37.9405L63.3484 40.6212L85.9746 25.1332L91.0498 34.253L83.4167 44.3851H83.5389V56.8419H83.5269ZM35.9106 36.9186L16.2522 21.6653L23.4443 8.69253L46.2816 13.2513L35.9106 36.9186ZM64.2857 36.9186L53.9196 13.2686L76.8503 8.69253L83.9919 21.5592L64.2857 36.9186Z" fill="black" fill-opacity="0.7"/>
<path d="M76.481 58.5623H72.7196L59.5774 76.0002L61.0973 88.7063L82.3763 58.5623H81.8584H76.481Z" fill="black" fill-opacity="0.7"/>
<path fill-rule="evenodd" clip-rule="evenodd" d="M66.5248 46.103V56.8419H81.8584V46.103H66.5248ZM79.9141 52.5546H68.5457V54.5095H79.9141V52.5546ZM76.4019 49.0103H68.5457V50.9652H76.4019V49.0103Z" fill="#299D2A"/>
<path d="M50.1462 104.219L53.9818 98.7838L61.0973 88.7063L59.5774 76.0002L50.1462 89.2122L40.8803 76.232L39.3868 88.9779L46.3103 98.7838L50.1462 104.219Z" fill="#61B960"/>
<path d="M38.2479 37.8691L45.035 40.8061L40.8803 76.232L50.1462 89.2122L59.5774 76.0002L55.3627 40.8061L61.9817 37.9405L50.0957 14.6137L38.2479 37.8691Z" fill="#299D2A"/>
<path d="M83.5269 56.8419V56.9308L99.383 34.4704L83.0905 0.70793L50.1462 5.68628L18.0646 0.636353L0.909088 34.4704L39.3868 88.9779L40.8803 76.232L9.2543 34.253L14.248 25.2541L36.8455 40.6212L38.2454 37.8691L50.0957 14.6137L61.9817 37.9405L63.3484 40.6212L85.9746 25.1332L91.0498 34.253L83.4167 44.3851H83.5389V56.8419H83.5269ZM35.9106 36.9186L16.2522 21.6653L23.4443 8.69253L46.2816 13.2513L35.9106 36.9186ZM64.2857 36.9186L53.9196 13.2686L76.8503 8.69253L83.9919 21.5592L64.2857 36.9186Z" fill="black" fill-opacity="0.7"/>
<path d="M76.481 58.5623H72.7196L59.5774 76.0002L61.0973 88.7063L82.3763 58.5623H81.8584H76.481Z" fill="black" fill-opacity="0.7"/>
<path fill-rule="evenodd" clip-rule="evenodd" d="M66.5248 46.103V56.8419H81.8584V46.103H66.5248ZM79.9141 52.5546H68.5457V54.5095H79.9141V52.5546ZM76.4019 49.0103H68.5457V50.9652H76.4019V49.0103Z" fill="#299D2A"/>
<path d="M50.1462 104.219L53.9818 98.7838L61.0973 88.7063L59.5774 76.0002L50.1462 89.2122L40.8803 76.232L39.3868 88.9779L46.3103 98.7838L50.1462 104.219Z" fill="#61B960"/>
<path d="M38.2479 37.8691L45.035 40.8061L40.8803 76.232L50.1462 89.2122L59.5774 76.0002L55.3627 40.8061L61.9817 37.9405L50.0957 14.6137L38.2479 37.8691Z" fill="#299D2A"/>
<path d="M83.5269 56.8419V56.9308L99.383 34.4704L83.0905 0.70793L50.1462 5.68628L18.0646 0.636353L0.909088 34.4704L39.3868 88.9779L40.8803 76.232L9.2543 34.253L14.248 25.2541L36.8455 40.6212L38.2454 37.8691L50.0957 14.6137L61.9817 37.9405L63.3484 40.6212L85.9746 25.1332L91.0498 34.253L83.4167 44.3851H83.5389V56.8419H83.5269ZM35.9106 36.9186L16.2522 21.6653L23.4443 8.69253L46.2816 13.2513L35.9106 36.9186ZM64.2857 36.9186L53.9196 13.2686L76.8503 8.69253L83.9919 21.5592L64.2857 36.9186Z" fill="black" fill-opacity="0.7"/>
<path d="M76.481 58.5623H72.7196L59.5774 76.0002L61.0973 88.7063L82.3763 58.5623H81.8584H76.481Z" fill="black" fill-opacity="0.7"/>
<path fill-rule="evenodd" clip-rule="evenodd" d="M66.5248 46.103V56.8419H81.8584V46.103H66.5248ZM79.9141 52.5546H68.5457V54.5095H79.9141V52.5546ZM76.4019 49.0103H68.5457V50.9652H76.4019V49.0103Z" fill="#299D2A"/>
<path d="M50.1462 104.219L53.9818 98.7838L61.0973 88.7063L59.5774 76.0002L50.1462 89.2122L40.8803 76.232L39.3868 88.9779L46.3103 98.7838L50.1462 104.219Z" fill="#61B960"/>
<path d="M38.2479 37.8691L45.035 40.8061L40.8803 76.232L50.1462 89.2122L59.5774 76.0002L55.3627 40.8061L61.9817 37.9405L50.0957 14.6137L38.2479 37.8691Z" fill="#299D2A"/>
<path d="M83.5269 56.8419V56.9308L99.383 34.4704L83.0905 0.70793L50.1462 5.68628L18.0646 0.636353L0.909088 34.4704L39.3868 88.9779L40.8803 76.232L9.2543 34.253L14.248 25.2541L36.8455 40.6212L38.2454 37.8691L50.0957 14.6137L61.9817 37.9405L63.3484 40.6212L85.9746 25.1332L91.0498 34.253L83.4167 44.3851H83.5389V56.8419H83.5269ZM35.9106 36.9186L16.2522 21.6653L23.4443 8.69253L46.2816 13.2513L35.9106 36.9186ZM64.2857 36.9186L53.9196 13.2686L76.8503 8.69253L83.9919 21.5592L64.2857 36.9186Z" fill="black" fill-opacity="0.7"/>
<path d="M76.481 58.5623H72.7196L59.5774 76.0002L61.0973 88.7063L82.3763 58.5623H81.8584H76.481Z" fill="black" fill-opacity="0.7"/>
<path fill-rule="evenodd" clip-rule="evenodd" d="M66.5248 46.103V56.8419H81.8584V46.103H66.5248ZM79.9141 52.5546H68.5457V54.5095H79.9141V52.5546ZM76.4019 49.0103H68.5457V50.9652H76.4019V49.0103Z" fill="#299D2A"/>
<path d="M50.1462 104.219L53.9818 98.7838L61.0973 88.7063L59.5774 76.0002L50.1462 89.2122L40.8803 76.232L39.3868 88.9779L46.3103 98.7838L50.1462 104.219Z" fill="#61B960"/>
<path d="M38.2479 37.8691L45.035 40.8061L40.8803 76.232L50.1462 89.2122L59.5774 76.0002L55.3627 40.8061L61.9817 37.9405L50.0957 14.6137L38.2479 37.8691Z" fill="#299D2A"/>
<path d="M83.5269 56.8419V56.9308L99.383 34.4704L83.0905 0.70793L50.1462 5.68628L18.0646 0.636353L0.909088 34.4704L39.3868 88.9779L40.8803 76.232L9.2543 34.253L14.248 25.2541L36.8455 40.6212L38.2454 37.8691L50.0957 14.6137L61.9817 37.9405L63.3484 40.6212L85.9746 25.1332L91.0498 34.253L83.4167 44.3851H83.5389V56.8419H83.5269ZM35.9106 36.9186L16.2522 21.6653L23.4443 8.69253L46.2816 13.2513L35.9106 36.9186ZM64.2857 36.9186L53.9196 13.2686L76.8503 8.69253L83.9919 21.5592L64.2857 36.9186Z" fill="black" fill-opacity="0.7"/>
<path d="M76.481 58.5623H72.7196L59.5774 76.0002L61.0973 88.7063L82.3763 58.5623H81.8584H76.481Z" fill="black" fill-opacity="0.7"/>
<path fill-rule="evenodd" clip-rule="evenodd" d="M66.5248 46.103V56.8419H81.8584V46.103H66.5248ZM79.9141 52.5546H68.5457V54.5095H79.9141V52.5546ZM76.4019 49.0103H68.5457V50.9652H76.4019V49.0103Z" fill="#299D2A"/>
<path d="M50.1462 104.219L53.9818 98.7838L61.0973 88.7063L59.5774 76.0002L50.1462 89.2122L40.8803 76.232L39.3868 88.9779L46.3103 98.7838L50.1462 104.219Z" fill="#61B960"/>
<path d="M38.2479 37.8691L45.035 40.8061L40.8803 76.232L50.1462 89.2122L59.5774 76.0002L55.3627 40.8061L61.9817 37.9405L50.0957 14.6137L38.2479 37.8691Z" fill="#299D2A"/>
<path d="M83.5269 56.8419V56.9308L99.383 34.4704L83.0905 0.70793L50.1462 5.68628L18.0646 0.636353L0.909088 34.4704L39.3868 88.9779L40.8803 76.232L9.2543 34.253L14.248 25.2541L36.8455 40.6212L38.2454 37.8691L50.0957 14.6137L61.9817 37.9405L63.3484 40.6212L85.9746 25.1332L91.0498 34.253L83.4167 44.3851H83.5389V56.8419H83.5269ZM35.9106 36.9186L16.2522 21.6653L23.4443 8.69253L46.2816 13.2513L35.9106 36.9186ZM64.2857 36.9186L53.9196 13.2686L76.8503 8.69253L83.9919 21.5592L64.2857 36.9186Z" fill="#5C5C5C" fill-opacity="0.71"/>
<path d="M83.5269 56.8419V56.9308L99.383 34.4704L83.0905 0.70793L50.1462 5.68628L18.0646 0.636353L0.909088 34.4704L39.3868 88.9779L40.8803 76.232L9.2543 34.253L14.248 25.2541L36.8455 40.6212L38.2454 37.8691L50.0957 14.6137L61.9817 37.9405L63.3484 40.6212L85.9746 25.1332L91.0498 34.253L83.4167 44.3851H83.5389V56.8419H83.5269ZM35.9106 36.9186L16.2522 21.6653L23.4443 8.69253L46.2816 13.2513L35.9106 36.9186ZM64.2857 36.9186L53.9196 13.2686L76.8503 8.69253L83.9919 21.5592L64.2857 36.9186Z" fill="#5C5C5C" fill-opacity="0.71"/>
<path d="M83.5269 56.8419V56.9308L99.383 34.4704L83.0905 0.70793L50.1462 5.68628L18.0646 0.636353L0.909088 34.4704L39.3868 88.9779L40.8803 76.232L9.2543 34.253L14.248 25.2541L36.8455 40.6212L38.2454 37.8691L50.0957 14.6137L61.9817 37.9405L63.3484 40.6212L85.9746 25.1332L91.0498 34.253L83.4167 44.3851H83.5389V56.8419H83.5269ZM35.9106 36.9186L16.2522 21.6653L23.4443 8.69253L46.2816 13.2513L35.9106 36.9186ZM64.2857 36.9186L53.9196 13.2686L76.8503 8.69253L83.9919 21.5592L64.2857 36.9186Z" fill="#5C5C5C" fill-opacity="0.71"/>
<path d="M83.5269 56.8419V56.9308L99.383 34.4704L83.0905 0.70793L50.1462 5.68628L18.0646 0.636353L0.909088 34.4704L39.3868 88.9779L40.8803 76.232L9.2543 34.253L14.248 25.2541L36.8455 40.6212L38.2454 37.8691L50.0957 14.6137L61.9817 37.9405L63.3484 40.6212L85.9746 25.1332L91.0498 34.253L83.4167 44.3851H83.5389V56.8419H83.5269ZM35.9106 36.9186L16.2522 21.6653L23.4443 8.69253L46.2816 13.2513L35.9106 36.9186ZM64.2857 36.9186L53.9196 13.2686L76.8503 8.69253L83.9919 21.5592L64.2857 36.9186Z" fill="#5C5C5C" fill-opacity="0.71"/>
<path d="M83.5269 56.8419V56.9308L99.383 34.4704L83.0905 0.70793L50.1462 5.68628L18.0646 0.636353L0.909088 34.4704L39.3868 88.9779L40.8803 76.232L9.2543 34.253L14.248 25.2541L36.8455 40.6212L38.2454 37.8691L50.0957 14.6137L61.9817 37.9405L63.3484 40.6212L85.9746 25.1332L91.0498 34.253L83.4167 44.3851H83.5389V56.8419H83.5269ZM35.9106 36.9186L16.2522 21.6653L23.4443 8.69253L46.2816 13.2513L35.9106 36.9186ZM64.2857 36.9186L53.9196 13.2686L76.8503 8.69253L83.9919 21.5592L64.2857 36.9186Z" fill="#5C5C5C" fill-opacity="0.71"/>
<path d="M83.5269 56.8419V56.9308L99.383 34.4704L83.0905 0.70793L50.1462 5.68628L18.0646 0.636353L0.909088 34.4704L39.3868 88.9779L40.8803 76.232L9.2543 34.253L14.248 25.2541L36.8455 40.6212L38.2454 37.8691L50.0957 14.6137L61.9817 37.9405L63.3484 40.6212L85.9746 25.1332L91.0498 34.253L83.4167 44.3851H83.5389V56.8419H83.5269ZM35.9106 36.9186L16.2522 21.6653L23.4443 8.69253L46.2816 13.2513L35.9106 36.9186ZM64.2857 36.9186L53.9196 13.2686L76.8503 8.69253L83.9919 21.5592L64.2857 36.9186Z" fill="#5C5C5C" fill-opacity="0.71"/>
<path d="M76.481 58.5623H72.7196L59.5774 76.0002L61.0973 88.7063L82.3763 58.5623H81.8584H76.481Z" fill="#5C5C5C" fill-opacity="0.71"/>
<path d="M76.481 58.5623H72.7196L59.5774 76.0002L61.0973 88.7063L82.3763 58.5623H81.8584H76.481Z" fill="#5C5C5C" fill-opacity="0.71"/>
<path d="M76.481 58.5623H72.7196L59.5774 76.0002L61.0973 88.7063L82.3763 58.5623H81.8584H76.481Z" fill="#5C5C5C" fill-opacity="0.71"/>
<path d="M76.481 58.5623H72.7196L59.5774 76.0002L61.0973 88.7063L82.3763 58.5623H81.8584H76.481Z" fill="#5C5C5C" fill-opacity="0.71"/>
<path d="M76.481 58.5623H72.7196L59.5774 76.0002L61.0973 88.7063L82.3763 58.5623H81.8584H76.481Z" fill="#5C5C5C" fill-opacity="0.71"/>
<path d="M76.481 58.5623H72.7196L59.5774 76.0002L61.0973 88.7063L82.3763 58.5623H81.8584H76.481Z" fill="#5C5C5C" fill-opacity="0.71"/>
<path d="M76.481 58.5623H72.7196L59.5774 76.0002L61.0973 88.7063L82.3763 58.5623H81.8584H76.481Z" fill="#5C5C5C" fill-opacity="0.71"/>
<path d="M76.481 58.5623H72.7196L59.5774 76.0002L61.0973 88.7063L82.3763 58.5623H81.8584H76.481Z" fill="#5C5C5C" fill-opacity="0.71"/>
<path d="M76.481 58.5623H72.7196L59.5774 76.0002L61.0973 88.7063L82.3763 58.5623H81.8584H76.481Z" fill="#5C5C5C" fill-opacity="0.71"/>
<path d="M76.481 58.5623H72.7196L59.5774 76.0002L61.0973 88.7063L82.3763 58.5623H81.8584H76.481Z" fill="#5C5C5C" fill-opacity="0.71"/>
<path d="M76.481 58.5623H72.7196L59.5774 76.0002L61.0973 88.7063L82.3763 58.5623H81.8584H76.481Z" fill="#5C5C5C" fill-opacity="0.71"/>
<path d="M76.481 58.5623H72.7196L59.5774 76.0002L61.0973 88.7063L82.3763 58.5623H81.8584H76.481Z" fill="#5C5C5C" fill-opacity="0.71"/>
<path d="M76.481 58.5623H72.7196L59.5774 76.0002L61.0973 88.7063L82.3763 58.5623H81.8584H76.481Z" fill="#5C5C5C" fill-opacity="0.71"/>
<path d="M76.481 58.5623H72.7196L59.5774 76.0002L61.0973 88.7063L82.3763 58.5623H81.8584H76.481Z" fill="#5C5C5C" fill-opacity="0.71"/>
<path d="M76.481 58.5623H72.7196L59.5774 76.0002L61.0973 88.7063L82.3763 58.5623H81.8584H76.481Z" fill="#5C5C5C" fill-opacity="0.71"/>
<path d="M76.481 58.5623H72.7196L59.5774 76.0002L61.0973 88.7063L82.3763 58.5623H81.8584H76.481Z" fill="#5C5C5C" fill-opacity="0.71"/>
<path d="M76.481 58.5623H72.7196L59.5774 76.0002L61.0973 88.7063L82.3763 58.5623H81.8584H76.481Z" fill="#5C5C5C" fill-opacity="0.71"/>
<path d="M76.481 58.5623H72.7196L59.5774 76.0002L61.0973 88.7063L82.3763 58.5623H81.8584H76.481Z" fill="#5C5C5C" fill-opacity="0.71"/>
<path d="M76.481 58.5623H72.7196L59.5774 76.0002L61.0973 88.7063L82.3763 58.5623H81.8584H76.481Z" fill="#5C5C5C" fill-opacity="0.71"/>
<path d="M76.481 58.5623H72.7196L59.5774 76.0002L61.0973 88.7063L82.3763 58.5623H81.8584H76.481Z" fill="#5C5C5C" fill-opacity="0.71"/>
<path d="M76.481 58.5623H72.7196L59.5774 76.0002L61.0973 88.7063L82.3763 58.5623H81.8584H76.481Z" fill="#5C5C5C" fill-opacity="0.71"/>
<path d="M76.481 58.5623H72.7196L59.5774 76.0002L61.0973 88.7063L82.3763 58.5623H81.8584H76.481Z" fill="#5C5C5C" fill-opacity="0.71"/>
<path d="M76.481 58.5623H72.7196L59.5774 76.0002L61.0973 88.7063L82.3763 58.5623H81.8584H76.481Z" fill="#5C5C5C" fill-opacity="0.71"/>
<path d="M76.481 58.5623H72.7196L59.5774 76.0002L61.0973 88.7063L82.3763 58.5623H81.8584H76.481Z" fill="#5C5C5C" fill-opacity="0.71"/>
<path d="M76.481 58.5623H72.7196L59.5774 76.0002L61.0973 88.7063L82.3763 58.5623H81.8584H76.481Z" fill="#5C5C5C" fill-opacity="0.71"/>
<path d="M76.481 58.5623H72.7196L59.5774 76.0002L61.0973 88.7063L82.3763 58.5623H81.8584H76.481Z" fill="#5C5C5C" fill-opacity="0.71"/>
<path d="M76.481 58.5623H72.7196L59.5774 76.0002L61.0973 88.7063L82.3763 58.5623H81.8584H76.481Z" fill="#5C5C5C" fill-opacity="0.71"/>
<path d="M76.481 58.5623H72.7196L59.5774 76.0002L61.0973 88.7063L82.3763 58.5623H81.8584H76.481Z" fill="#5C5C5C" fill-opacity="0.71"/>
<path d="M76.481 58.5623H72.7196L59.5774 76.0002L61.0973 88.7063L82.3763 58.5623H81.8584H76.481Z" fill="#5C5C5C" fill-opacity="0.71"/>
<path d="M76.481 58.5623H72.7196L59.5774 76.0002L61.0973 88.7063L82.3763 58.5623H81.8584H76.481Z" fill="#5C5C5C" fill-opacity="0.71"/>
<path d="M76.481 58.5623H72.7196L59.5774 76.0002L61.0973 88.7063L82.3763 58.5623H81.8584H76.481Z" fill="#5C5C5C" fill-opacity="0.71"/>
<path d="M76.481 58.5623H72.7196L59.5774 76.0002L61.0973 88.7063L82.3763 58.5623H81.8584H76.481Z" fill="#5C5C5C" fill-opacity="0.71"/>
<path d="M76.481 58.5623H72.7196L59.5774 76.0002L61.0973 88.7063L82.3763 58.5623H81.8584H76.481Z" fill="#5C5C5C" fill-opacity="0.71"/>
<path d="M76.481 58.5623H72.7196L59.5774 76.0002L61.0973 88.7063L82.3763 58.5623H81.8584H76.481Z" fill="#5C5C5C" fill-opacity="0.71"/>
<path d="M76.481 58.5623H72.7196L59.5774 76.0002L61.0973 88.7063L82.3763 58.5623H81.8584H76.481Z" fill="#5C5C5C" fill-opacity="0.71"/>
<path d="M76.481 58.5623H72.7196L59.5774 76.0002L61.0973 88.7063L82.3763 58.5623H81.8584H76.481Z" fill="#5C5C5C" fill-opacity="0.71"/>
<path d="M76.481 58.5623H72.7196L59.5774 76.0002L61.0973 88.7063L82.3763 58.5623H81.8584H76.481Z" fill="#5C5C5C" fill-opacity="0.71"/>
<path d="M76.481 58.5623H72.7196L59.5774 76.0002L61.0973 88.7063L82.3763 58.5623H81.8584H76.481Z" fill="#5C5C5C" fill-opacity="0.71"/>
<path d="M76.481 58.5623H72.7196L59.5774 76.0002L61.0973 88.7063L82.3763 58.5623H81.8584H76.481Z" fill="#5C5C5C" fill-opacity="0.71"/>
<path d="M76.481 58.5623H72.7196L59.5774 76.0002L61.0973 88.7063L82.3763 58.5623H81.8584H76.481Z" fill="#5C5C5C" fill-opacity="0.71"/>
<path d="M76.481 58.5623H72.7196L59.5774 76.0002L61.0973 88.7063L82.3763 58.5623H81.8584H76.481Z" fill="#5C5C5C" fill-opacity="0.71"/>
<path d="M76.481 58.5623H72.7196L59.5774 76.0002L61.0973 88.7063L82.3763 58.5623H81.8584H76.481Z" fill="#5C5C5C" fill-opacity="0.71"/>
<path d="M76.481 58.5623H72.7196L59.5774 76.0002L61.0973 88.7063L82.3763 58.5623H81.8584H76.481Z" fill="#5C5C5C" fill-opacity="0.71"/>
<path d="M76.481 58.5623H72.7196L59.5774 76.0002L61.0973 88.7063L82.3763 58.5623H81.8584H76.481Z" fill="#5C5C5C" fill-opacity="0.71"/>
<path d="M76.481 58.5623H72.7196L59.5774 76.0002L61.0973 88.7063L82.3763 58.5623H81.8584H76.481Z" fill="#5C5C5C" fill-opacity="0.71"/>
<path d="M76.481 58.5623H72.7196L59.5774 76.0002L61.0973 88.7063L82.3763 58.5623H81.8584H76.481Z" fill="#5C5C5C" fill-opacity="0.71"/>
<path d="M76.481 58.5623H72.7196L59.5774 76.0002L61.0973 88.7063L82.3763 58.5623H81.8584H76.481Z" fill="#5C5C5C" fill-opacity="0.71"/>
<path d="M76.481 58.5623H72.7196L59.5774 76.0002L61.0973 88.7063L82.3763 58.5623H81.8584H76.481Z" fill="#5C5C5C" fill-opacity="0.71"/>
<path d="M76.481 58.5623H72.7196L59.5774 76.0002L61.0973 88.7063L82.3763 58.5623H81.8584H76.481Z" fill="#5C5C5C" fill-opacity="0.71"/>
<path d="M76.481 58.5623H72.7196L59.5774 76.0002L61.0973 88.7063L82.3763 58.5623H81.8584H76.481Z" fill="#5C5C5C" fill-opacity="0.71"/>
<path d="M76.481 58.5623H72.7196L59.5774 76.0002L61.0973 88.7063L82.3763 58.5623H81.8584H76.481Z" fill="#5C5C5C" fill-opacity="0.71"/>
<path d="M76.481 58.5623H72.7196L59.5774 76.0002L61.0973 88.7063L82.3763 58.5623H81.8584H76.481Z" fill="#5C5C5C" fill-opacity="0.71"/>
<path d="M76.481 58.5623H72.7196L59.5774 76.0002L61.0973 88.7063L82.3763 58.5623H81.8584H76.481Z" fill="#5C5C5C" fill-opacity="0.71"/>
<path d="M76.481 58.5623H72.7196L59.5774 76.0002L61.0973 88.7063L82.3763 58.5623H81.8584H76.481Z" fill="#5C5C5C" fill-opacity="0.71"/>
<path d="M76.481 58.5623H72.7196L59.5774 76.0002L61.0973 88.7063L82.3763 58.5623H81.8584H76.481Z" fill="#5C5C5C" fill-opacity="0.71"/>
<path d="M76.481 58.5623H72.7196L59.5774 76.0002L61.0973 88.7063L82.3763 58.5623H81.8584H76.481Z" fill="#5C5C5C" fill-opacity="0.71"/>
<path d="M76.481 58.5623H72.7196L59.5774 76.0002L61.0973 88.7063L82.3763 58.5623H81.8584H76.481Z" fill="#5C5C5C" fill-opacity="0.71"/>
<path d="M76.481 58.5623H72.7196L59.5774 76.0002L61.0973 88.7063L82.3763 58.5623H81.8584H76.481Z" fill="#5C5C5C" fill-opacity="0.71"/>
<path d="M76.481 58.5623H72.7196L59.5774 76.0002L61.0973 88.7063L82.3763 58.5623H81.8584H76.481Z" fill="#5C5C5C" fill-opacity="0.71"/>
<path d="M76.481 58.5623H72.7196L59.5774 76.0002L61.0973 88.7063L82.3763 58.5623H81.8584H76.481Z" fill="#5C5C5C" fill-opacity="0.71"/>
<path d="M76.481 58.5623H72.7196L59.5774 76.0002L61.0973 88.7063L82.3763 58.5623H81.8584H76.481Z" fill="#5C5C5C" fill-opacity="0.71"/>
<path d="M76.481 58.5623H72.7196L59.5774 76.0002L61.0973 88.7063L82.3763 58.5623H81.8584H76.481Z" fill="#5C5C5C" fill-opacity="0.71"/>
<path d="M76.481 58.5623H72.7196L59.5774 76.0002L61.0973 88.7063L82.3763 58.5623H81.8584H76.481Z" fill="#5C5C5C" fill-opacity="0.71"/>
<path d="M76.481 58.5623H72.7196L59.5774 76.0002L61.0973 88.7063L82.3763 58.5623H81.8584H76.481Z" fill="#5C5C5C" fill-opacity="0.71"/>
<path fill-rule="evenodd" clip-rule="evenodd" d="M66.5248 46.103V56.8419H81.8584V46.103H66.5248ZM79.9141 52.5546H68.5457V54.5095H79.9141V52.5546ZM76.4019 49.0103H68.5457V50.9652H76.4019V49.0103Z" fill="#299D2A"/>
</svg>
